<?xml version="1.0" encoding="UTF-8" standalone="no"?>
<!-- Created with Inkscape (http://www.inkscape.org/) -->

<svg
   xmlns:dc="http://purl.org/dc/elements/1.1/"
   xmlns:cc="http://creativecommons.org/ns#"
   xmlns:rdf="http://www.w3.org/1999/02/22-rdf-syntax-ns#"
   xmlns:svg="http://www.w3.org/2000/svg"
   xmlns="http://www.w3.org/2000/svg"
   xmlns:sodipodi="http://sodipodi.sourceforge.net/DTD/sodipodi-0.dtd"
   xmlns:inkscape="http://www.inkscape.org/namespaces/inkscape"
   width="800"
   height="800"
   viewBox="0 0 799.99998 799.99997"
   id="svg2"
   version="1.1"
   inkscape:version="0.92.3 (2405546, 2018-03-11)"
   sodipodi:docname="eBibleorglogo.svg">
  <defs
     id="defs4" />
  <sodipodi:namedview
     id="base"
     pagecolor="#ffffff"
     bordercolor="#666666"
     borderopacity="1.0"
     inkscape:pageopacity="0.0"
     inkscape:pageshadow="2"
     inkscape:zoom="0.98994949"
     inkscape:cx="187.66871"
     inkscape:cy="351.5893"
     inkscape:document-units="px"
     inkscape:current-layer="layer1"
     showgrid="false"
     units="px"
     inkscape:window-width="1920"
     inkscape:window-height="1045"
     inkscape:window-x="1920"
     inkscape:window-y="0"
     inkscape:window-maximized="1" />
  <metadata
     id="metadata7">
    <rdf:RDF>
      <cc:Work
         rdf:about="">
        <dc:format>image/svg+xml</dc:format>
        <dc:type
           rdf:resource="http://purl.org/dc/dcmitype/StillImage" />
        <dc:title></dc:title>
      </cc:Work>
    </rdf:RDF>
  </metadata>
  <g
     inkscape:label="Layer 1"
     inkscape:groupmode="layer"
     id="layer1"
     transform="translate(0,-252.36225)">
    <circle
       style="fill:#00ffff;fill-opacity:1"
       id="path3336"
       cx="400"
       cy="552.36218"
       r="300"
       inkscape:export-xdpi="207.69231"
       inkscape:export-ydpi="207.69231" />
    <rect
       style="fill:#ff0000;fill-opacity:1"
       id="rect4159"
       width="40"
       height="540"
       x="380"
       y="277.36224"
       inkscape:export-xdpi="207.69231"
       inkscape:export-ydpi="207.69231" />
    <rect
       style="fill:#ff0000;fill-opacity:1"
       id="rect4161"
       width="300"
       height="40"
       x="250"
       y="372.36224"
       inkscape:export-xdpi="207.69231"
       inkscape:export-ydpi="207.69231" />
    <g
       aria-label="eBible.org"
       style="font-style:normal;font-weight:normal;line-height:0%;font-family:sans-serif;text-align:center;letter-spacing:0px;word-spacing:0px;text-anchor:middle;fill:#000000;fill-opacity:1;stroke:none;stroke-width:1px;stroke-linecap:butt;stroke-linejoin:miter;stroke-opacity:1"
       id="text4171">
      <path
         d="m 80.271209,931.63172 q -4.401042,0 -8.125,1.6927 -3.639323,1.69271 -6.516927,4.82422 -2.792968,3.04688 -4.739583,7.36328 -1.861979,4.23177 -2.623698,9.39453 h 36.223957 q 1.946615,0 2.539063,-0.59244 0.677083,-0.67709 0.677083,-2.45443 0,-2.28516 -0.677083,-5.67057 -0.592448,-3.47005 -2.539063,-6.6862 -1.861979,-3.30078 -5.332031,-5.58594 -3.385416,-2.28515 -8.886718,-2.28515 z m 31.315101,25.22135 q -1.52344,1.69271 -4.0625,3.13151 -2.53906,1.4388 -5.24739,2.53906 H 57.758189 q 0.08463,6.60156 1.777343,12.61068 1.777344,5.92448 4.99349,10.49479 3.300781,4.48568 7.871093,7.19401 4.654948,2.70833 10.410156,2.70833 2.623698,0 5.078125,-0.33854 2.539063,-0.33854 5.416667,-1.52344 2.877604,-1.18489 6.347656,-3.47005 3.554691,-2.28515 8.294271,-6.17838 1.10026,0.59245 1.86198,1.69271 0.84635,1.10026 1.26953,1.77734 -5.67057,6.17838 -9.98698,9.98698 -4.23177,3.72393 -8.040364,5.75523 -3.723958,2.0312 -7.447916,2.6237 -3.639323,0.6771 -7.955729,0.6771 -6.516927,0 -12.441406,-2.793 -5.839843,-2.793 -10.32552,-7.8711 -4.485677,-5.16276 -7.194011,-12.35678 -2.623697,-7.27864 -2.623697,-16.24999 0,-5.67058 1.269531,-11.17188 1.269531,-5.5013 3.639323,-10.41016 2.454427,-4.90885 5.924479,-9.05598 3.470052,-4.14714 7.871093,-7.19401 1.861979,-1.26954 4.147135,-2.45443 2.369792,-1.26953 4.908854,-2.20052 2.539063,-0.93099 4.99349,-1.4388 2.539062,-0.59245 4.824218,-0.59245 5.501302,0 9.817708,1.52343 4.316407,1.52344 7.532552,4.14714 3.21615,2.53906 5.41667,6.00911 2.20052,3.38542 3.55468,7.19401 1.43881,3.8086 2.03125,7.78646 0.59245,3.89323 0.59245,7.44792 z"
         style="font-style:normal;font-variant:normal;font-weight:normal;font-stretch:normal;font-size:173.33332825px;font-family:'Gentium Basic';-inkscape-font-specification:'Gentium Basic';fill:#ff0000;fill-opacity:1"
         id="path822" />
      <path
         d="m 153.48084,901.92469 q -1.18489,0 -2.45442,0.0846 -1.1849,0 -2.45443,0.0846 v 40.54036 h 2.8776 q 9.64844,0 15.57292,-1.86198 6.00912,-1.94661 9.3099,-4.90885 3.30078,-2.96224 4.48567,-6.6862 1.1849,-3.72396 1.1849,-7.36328 0,-4.23177 -1.4388,-7.8711 -1.35417,-3.63932 -4.65495,-6.26302 -3.30078,-2.70833 -8.80208,-4.23177 -5.41667,-1.52343 -13.62631,-1.52343 z m 9.05599,47.05729 q -4.0625,0 -7.53255,0.42317 -3.38541,0.33854 -6.43229,0.84636 v 44.9414 q 0,0.67709 0.76172,1.26953 1.4388,0.50782 3.30078,0.84636 1.86198,0.2539 3.80859,0.42317 1.94662,0.16928 3.89323,0.25391 1.94662,0.0846 3.63933,0.0846 6.09375,0 11.0026,-1.52344 4.90885,-1.60807 8.37891,-4.40104 3.55468,-2.79297 5.41666,-6.6862 1.86198,-3.97787 1.86198,-8.71745 0,-4.65495 -1.69271,-9.5638 -1.60807,-4.90885 -5.07812,-8.97135 -3.38542,-4.0625 -8.71745,-6.60157 -5.2474,-2.62369 -12.61068,-2.62369 z m 41.97917,24.88281 q 0,7.19401 -2.8776,13.03385 -2.79297,5.75521 -7.95573,9.81771 -5.07813,4.06245 -12.1875,6.26305 -7.10938,2.2005 -15.65756,2.2005 -1.86197,0 -4.48567,-0.085 -2.53906,0 -5.5013,-0.085 -2.96224,-0.085 -6.09375,-0.1693 -3.13151,-0.085 -6.09375,-0.2539 -7.02474,-0.2539 -14.72657,-0.5924 h -6.17838 v -3.6393 q 5.75521,-1.18492 8.97135,-2.53909 3.30078,-1.4388 3.30078,-2.6237 v -91.91406 q -3.21614,0.42318 -6.34765,0.93099 -3.04688,0.42318 -5.92448,0.93099 l -0.76172,-5.24739 q 3.30078,-0.93099 7.61719,-1.77735 4.40104,-0.93099 9.22526,-1.60807 4.82422,-0.76172 9.81771,-1.1849 4.99349,-0.50781 9.5638,-0.50781 8.46354,0 15.31901,1.60807 6.85547,1.52344 11.59505,4.48568 4.82422,2.96224 7.36328,7.19401 2.6237,4.23177 2.6237,9.5638 0,9.14063 -4.31641,15.74219 -4.3164,6.51693 -11.76432,9.39453 5.41667,1.01563 10.07161,3.80859 4.65495,2.79297 8.04037,6.94011 3.47005,4.0625 5.41666,9.30989 1.94662,5.16276 1.94662,11.00261 z"
         style="font-style:normal;font-variant:normal;font-weight:normal;font-stretch:normal;font-size:173.33332825px;font-family:'Gentium Basic';-inkscape-font-specification:'Gentium Basic';fill:#0000ff;fill-opacity:1"
         id="path824" />
      <path
         d="m 219.91965,1003.995 v -3.6393 q 5.75521,-1.18492 8.80208,-2.53909 3.04688,-1.4388 3.04688,-2.6237 v -47.90364 q 0,-4.31641 -0.16928,-6.94011 -0.16927,-2.70833 -1.26953,-4.14713 -1.10026,-1.52344 -3.55468,-2.20052 -2.3698,-0.67709 -6.85547,-1.10026 v -3.38542 q 2.6237,-0.50781 5.5013,-1.1849 2.96224,-0.76171 5.83984,-1.60807 2.87761,-0.93099 5.5013,-1.94661 2.6237,-1.01563 4.82422,-2.03125 h 2.87761 v 72.44791 q 0,1.01563 2.79297,2.53906 2.8776,1.43881 9.05599,2.62373 v 3.6393 z m 27.08333,-106.72526 q 0,2.36979 -0.76172,4.48567 -0.76172,2.11589 -2.11588,3.72396 -1.26954,1.52344 -3.04688,2.45443 -1.77734,0.93099 -3.89323,0.93099 -3.80859,0 -5.5013,-2.11589 -1.60807,-2.11588 -1.60807,-6.00911 0,-2.36979 0.76172,-4.48568 0.76171,-2.11588 2.11588,-3.63932 1.35417,-1.60807 3.04688,-2.45443 1.77734,-0.93099 3.80859,-0.93099 7.19401,0 7.19401,8.04037 z"
         style="font-style:normal;font-variant:normal;font-weight:normal;font-stretch:normal;font-size:173.33332825px;font-family:'Gentium Basic';-inkscape-font-specification:'Gentium Basic';fill:#0000ff;fill-opacity:1"
         id="path826" />
      <path
         d="m 341.45609,962.35437 q 0,4.90886 -1.26953,10.07162 -1.26953,5.16276 -3.72396,10.07161 -2.45442,4.90885 -6.00911,9.3099 -3.55469,4.40104 -8.125,7.70182 -4.48568,3.21618 -9.90234,5.07808 -5.41667,1.9467 -11.67969,1.9467 -1.60807,0 -4.48568,-0.7618 -2.79297,-0.677 -6.51692,-2.0312 -3.63933,-1.3542 -7.95573,-3.3008 -4.31641,-2.03124 -8.88672,-4.5703 V 894.3075 q 0,-3.89323 -0.42318,-6.00912 -0.42318,-2.11588 -1.60807,-3.13151 -1.1849,-1.10026 -3.38542,-1.4388 -2.11588,-0.33854 -5.58594,-0.76172 v -3.38541 q 5.58594,-1.35417 10.66407,-2.70834 5.07812,-1.4388 9.90234,-4.0625 l 0.84635,0.84636 q 0.50782,0.50781 1.01563,0.93099 0.59245,0.50781 1.26953,1.10026 v 66.77734 q 4.23177,-5.07813 8.37891,-8.80208 4.23177,-3.72396 8.04036,-6.09375 3.89323,-2.45443 7.19401,-3.63933 3.30078,-1.18489 5.75521,-1.18489 5.75521,0 10.57943,2.70833 4.90885,2.70833 8.3789,7.87109 3.55469,5.07813 5.5013,12.44141 2.03125,7.36328 2.03125,16.58854 z m -11.42578,7.10938 q 0,-8.46355 -1.77734,-14.98047 -1.69271,-6.60156 -4.65495,-11.08724 -2.8776,-4.48568 -6.6862,-6.85547 -3.80859,-2.36979 -7.87109,-2.36979 -1.52344,0 -4.0625,0.93099 -2.45443,0.84635 -5.58594,2.96224 -3.13151,2.03125 -6.6862,5.58593 -3.55468,3.47006 -7.10937,8.71745 v 34.44662 q 3.38542,2.53906 6.85547,4.23177 3.55469,1.69271 6.6862,2.70833 3.21614,0.93099 5.7552,1.35417 2.6237,0.42317 4.14714,0.42317 5.16276,0 9.05599,-2.20052 3.89323,-2.28515 6.51693,-5.92448 2.70833,-3.72395 4.0625,-8.3789 1.35416,-4.65495 1.35416,-9.5638 z"
         style="font-style:normal;font-variant:normal;font-weight:normal;font-stretch:normal;font-size:173.33332825px;font-family:'Gentium Basic';-inkscape-font-specification:'Gentium Basic';fill:#0000ff;fill-opacity:1"
         id="path828" />
      <path
         d="m 354.15142,1003.995 v -3.6393 q 3.63932,-0.59248 6.09375,-1.18492 2.45443,-0.67709 3.89323,-1.26953 1.4388,-0.67709 2.03125,-1.35417 0.67708,-0.67708 0.67708,-1.35417 V 894.3075 q 0,-3.8086 -0.50781,-5.92448 -0.50781,-2.11589 -1.86198,-3.13151 -1.35417,-1.10026 -3.63932,-1.4388 -2.28516,-0.42318 -5.83985,-0.84636 v -3.38541 q 6.09375,-1.1849 11.17188,-2.6237 5.07812,-1.4388 10.32552,-4.14714 l 3.04687,2.87761 v 119.5052 q 0,1.26953 2.87761,2.6237 2.8776,1.35417 9.8177,2.53909 v 3.6393 z"
         style="font-style:normal;font-variant:normal;font-weight:normal;font-stretch:normal;font-size:173.33332825px;font-family:'Gentium Basic';-inkscape-font-specification:'Gentium Basic';fill:#0000ff;fill-opacity:1"
         id="path830" />
      <path
         d="m 438.10974,931.63172 q -4.40104,0 -8.125,1.6927 -3.63932,1.69271 -6.51693,4.82422 -2.79296,3.04688 -4.73958,7.36328 -1.86198,4.23177 -2.6237,9.39453 h 36.22396 q 1.94661,0 2.53906,-0.59244 0.67709,-0.67709 0.67709,-2.45443 0,-2.28516 -0.67709,-5.67057 -0.59245,-3.47005 -2.53906,-6.6862 -1.86198,-3.30078 -5.33203,-5.58594 -3.38542,-2.28515 -8.88672,-2.28515 z m 31.3151,25.22135 q -1.52343,1.69271 -4.0625,3.13151 -2.53906,1.4388 -5.24739,2.53906 h -44.51823 q 0.0846,6.60156 1.77734,12.61068 1.77735,5.92448 4.99349,10.49479 3.30078,4.48568 7.8711,7.19401 4.65494,2.70833 10.41015,2.70833 2.6237,0 5.07813,-0.33854 2.53906,-0.33854 5.41666,-1.52344 2.87761,-1.18489 6.34766,-3.47005 3.55469,-2.28515 8.29427,-6.17838 1.10026,0.59245 1.86198,1.69271 0.84635,1.10026 1.26953,1.77734 -5.67057,6.17838 -9.98698,9.98698 -4.23177,3.72393 -8.04036,5.75523 -3.72396,2.0312 -7.44792,2.6237 -3.63932,0.6771 -7.95573,0.6771 -6.51692,0 -12.4414,-2.793 -5.83985,-2.793 -10.32552,-7.8711 -4.48568,-5.16276 -7.19401,-12.35678 -2.6237,-7.27864 -2.6237,-16.24999 0,-5.67058 1.26953,-11.17188 1.26953,-5.5013 3.63932,-10.41016 2.45443,-4.90885 5.92448,-9.05598 3.47005,-4.14714 7.87109,-7.19401 1.86198,-1.26954 4.14714,-2.45443 2.36979,-1.26953 4.90885,-2.20052 2.53907,-0.93099 4.99349,-1.4388 2.53907,-0.59245 4.82422,-0.59245 5.5013,0 9.81771,1.52343 4.31641,1.52344 7.53255,4.14714 3.21615,2.53906 5.41667,6.00911 2.20052,3.38542 3.55469,7.19401 1.4388,3.8086 2.03125,7.78646 0.59244,3.89323 0.59244,7.44792 z"
         style="font-style:normal;font-variant:normal;font-weight:normal;font-stretch:normal;font-size:173.33332825px;font-family:'Gentium Basic';-inkscape-font-specification:'Gentium Basic';fill:#0000ff;fill-opacity:1"
         id="path832" />
      <path
         d="m 507.59542,993.58484 q 0,2.96224 -0.93099,5.5013 -0.84636,2.45446 -2.45443,4.31636 -1.52344,1.862 -3.72396,2.8777 -2.11588,1.1002 -4.57031,1.1002 -4.57031,0 -6.51693,-2.4544 -1.94661,-2.4544 -1.94661,-7.02475 0,-2.87761 0.93099,-5.33204 0.93099,-2.53906 2.53906,-4.40104 1.60807,-1.94661 3.72396,-3.04687 2.20052,-1.10026 4.57031,-1.10026 4.23177,0 6.26302,2.53906 2.11589,2.45443 2.11589,7.02474 z"
         style="font-style:normal;font-variant:normal;font-weight:normal;font-stretch:normal;font-size:173.33332825px;font-family:'Gentium Basic';-inkscape-font-specification:'Gentium Basic';fill:#0000ff;fill-opacity:1"
         id="path834" />
      <path
         d="m 583.25948,965.48588 q 0,-6.6862 -2.20052,-12.69531 -2.20052,-6.09375 -5.67057,-10.66406 -3.47006,-4.65495 -7.8711,-7.36328 -4.40104,-2.70834 -8.71745,-2.70834 -6.43229,0 -10.83333,2.45443 -4.40104,2.45443 -7.10937,6.77083 -2.6237,4.23177 -3.8086,10.07162 -1.18489,5.83984 -1.18489,12.61067 0,6.6862 2.36979,12.77995 2.36979,6.00912 5.92448,10.57943 3.63932,4.57031 7.95573,7.27864 4.3164,2.6237 8.20963,2.6237 6.00912,0 10.32552,-2.20052 4.31641,-2.28515 7.10938,-6.43229 2.79297,-4.14714 4.14713,-9.98698 1.35417,-5.83984 1.35417,-13.11849 z m 13.11849,-2.53906 q 0,5.67057 -1.4388,11.08724 -1.43881,5.41667 -3.97787,10.24088 -2.53906,4.82422 -6.09375,8.97136 -3.55469,4.0625 -7.87109,7.0247 -4.23177,2.9623 -9.05599,4.5703 -4.82422,1.6928 -9.98698,1.6928 -8.04036,0 -14.55729,-3.0469 -6.43229,-3.0469 -11.08724,-8.37892 -4.57031,-5.33203 -7.10937,-12.69532 -2.45443,-7.36328 -2.45443,-15.99609 0,-5.58594 1.35416,-11.0026 1.43881,-5.41667 3.89323,-10.24089 2.53907,-4.90885 6.00912,-8.97135 3.55469,-4.14714 7.78646,-7.10938 4.3164,-2.96224 9.22526,-4.65494 4.99349,-1.69271 10.24088,-1.69271 7.95573,0 14.38802,3.04687 6.51693,3.04688 11.08724,8.46354 4.65495,5.33203 7.10938,12.69532 2.53906,7.36328 2.53906,15.99609 z"
         style="font-style:normal;font-variant:normal;font-weight:normal;font-stretch:normal;font-size:173.33332825px;font-family:'Gentium Basic';-inkscape-font-specification:'Gentium Basic';fill:#0000ff;fill-opacity:1"
         id="path836" />
      <path
         d="m 668.48731,925.87651 q 0.76172,0.50781 0.67709,2.96224 0,2.45442 -0.67709,5.67057 -0.59244,3.21615 -1.60807,6.60156 -1.01562,3.38542 -2.03125,5.67058 h -3.63932 q -0.50781,-3.38542 -1.4388,-5.75521 -0.93099,-2.36979 -2.20053,-3.72396 -1.18489,-1.4388 -2.70833,-2.03125 -1.4388,-0.67708 -3.04687,-0.67708 -1.86198,0 -4.40104,1.60807 -2.45443,1.52344 -5.07813,4.90885 -2.6237,3.30078 -5.2474,8.54818 -2.53906,5.16276 -4.57031,12.35677 v 33.17708 q 0,1.26953 3.13151,2.6237 3.21615,1.35417 11.17188,2.53909 v 3.6393 h -38.84766 v -3.6393 q 5.58594,-1.26956 8.71745,-2.45445 3.13151,-1.26954 3.13151,-2.70834 V 945.9351 q 0,-2.79297 -0.16927,-4.65495 -0.16927,-1.94661 -0.42318,-3.13151 -0.2539,-1.18489 -0.67708,-1.86198 -0.33854,-0.67708 -0.67708,-1.10026 -0.59245,-0.59244 -1.35417,-0.93099 -0.67708,-0.42317 -1.86198,-0.67708 -1.10026,-0.25391 -2.70833,-0.33854 -1.60808,-0.16927 -3.97787,-0.33854 v -3.38542 q 5.5013,-1.4388 10.7487,-2.8776 5.33203,-1.52344 9.5638,-3.89323 l 2.96224,2.96224 1.10026,19.21224 q 2.28516,-4.65495 4.90886,-8.71745 2.70833,-4.0625 5.7552,-7.02474 3.04688,-3.04688 6.34766,-4.73958 3.38542,-1.69271 7.02474,-1.69271 2.70833,0 5.83984,0.67708 3.13151,0.67708 6.26302,2.45443 z"
         style="font-style:normal;font-variant:normal;font-weight:normal;font-stretch:normal;font-size:173.33332825px;font-family:'Gentium Basic';-inkscape-font-specification:'Gentium Basic';fill:#0000ff;fill-opacity:1"
         id="path838" />
      <path
         d="m 730.44048,953.21375 q 0,-4.48568 -1.52344,-8.46354 -1.4388,-4.0625 -4.40104,-7.02474 -2.8776,-3.04688 -7.27865,-4.73959 -4.3164,-1.77734 -9.98697,-1.77734 -2.11589,0 -4.73959,1.10026 -2.53906,1.10026 -4.82422,3.21615 -2.28515,2.11588 -3.80859,5.33203 -1.52344,3.21614 -1.52344,7.36328 0,4.48567 1.35417,8.54817 1.4388,3.97787 4.23177,6.94011 2.8776,2.96224 7.19401,4.73958 4.40104,1.69271 10.41016,1.69271 2.45442,0 5.07812,-1.01563 2.70833,-1.10026 4.82422,-3.21614 2.20052,-2.20052 3.55469,-5.33203 1.4388,-3.13151 1.4388,-7.36328 z m -14.55729,51.11975 q -3.21615,-0.3385 -5.92448,-0.7617 -2.70833,-0.4232 -5.07813,-0.931 -6.09375,3.3008 -9.64843,5.9245 -3.47006,2.6237 -5.2474,4.655 -1.77734,2.1158 -2.28515,3.8085 -0.42318,1.6928 -0.42318,3.0469 0,3.5547 2.36979,6.6862 2.36979,3.2162 6.34766,5.5013 3.97786,2.3698 9.22526,3.724 5.24739,1.4388 11.0026,1.4388 5.67057,0 10.32552,-1.5235 4.65495,-1.5234 7.95573,-4.2317 3.30078,-2.6237 5.07812,-6.3477 1.86198,-3.6393 1.86198,-8.0403 0,-2.3698 -1.10026,-4.4011 -1.10026,-1.9466 -3.97786,-3.5547 -2.87761,-1.608 -7.8711,-2.8776 -4.90885,-1.2695 -12.61067,-2.1159 z m 26.40625,-54.58981 q 0,6.51693 -2.96224,11.9336 -2.87761,5.33203 -7.61719,9.22526 -4.73958,3.80859 -10.7487,6.00911 -6.00911,2.11589 -12.1875,2.11589 h -0.33854 q -4.0625,3.38541 -5.58594,5.67057 -1.52343,2.20052 -1.52343,2.70833 0,1.01563 0.84635,2.03125 0.93099,0.93099 3.30078,1.86198 2.45443,0.84636 6.6862,1.77735 4.23177,0.84635 10.83333,1.60807 9.22526,1.01562 15.23438,3.04687 6.00911,2.03125 9.5638,4.73963 3.55469,2.6237 4.90885,5.6705 1.43881,3.0469 1.43881,6.0091 0,4.655 -1.77735,8.8021 -1.77734,4.2318 -4.82422,7.7865 -3.04687,3.5547 -7.19401,6.4323 -4.14713,2.8776 -8.88672,4.9088 -4.73958,2.0313 -9.8177,3.1315 -5.07813,1.1003 -10.07162,1.1003 -3.97786,0 -8.20963,-0.5924 -4.23177,-0.5079 -8.37891,-1.6928 -4.14713,-1.1848 -7.87109,-3.0468 -3.63933,-1.7774 -6.43229,-4.4011 -2.79297,-2.539 -4.48568,-5.8398 -1.60807,-3.2162 -1.60807,-7.3633 0,-2.2005 0.76171,-4.6549 0.84636,-2.3698 3.30079,-5.1628 2.45442,-2.793 6.85546,-6.0091 4.40105,-3.2162 11.67969,-7.1094 -5.5013,-1.94661 -7.61719,-4.40103 -2.11588,-2.45443 -2.11588,-4.99349 0,-0.67709 0.42318,-1.77735 0.42317,-1.18489 1.6927,-2.79297 1.35417,-1.6927 3.72396,-3.80859 2.45443,-2.11588 6.34766,-4.82422 -4.31641,-1.18489 -7.8711,-3.38541 -3.47005,-2.28516 -6.00911,-5.41667 -2.45443,-3.21615 -3.89323,-7.19401 -1.35417,-4.0625 -1.35417,-8.80208 0,-6.17839 2.79297,-11.67969 2.79297,-5.58594 7.36328,-9.64844 4.57032,-4.14713 10.41016,-6.51693 5.83984,-2.45442 12.01823,-2.45442 5.07812,0 9.47917,1.4388 4.48567,1.4388 8.125,4.0625 4.40104,-0.42318 7.95572,-1.10026 3.55469,-0.67708 6.34766,-1.4388 2.8776,-0.76172 5.07813,-1.52344 2.20052,-0.76172 3.97786,-1.4388 l 1.69271,2.53906 q -1.01563,2.36979 -1.94662,4.40104 -0.93099,1.94662 -2.8776,4.0625 -3.21615,0.59245 -6.34766,0.93099 -3.04687,0.33854 -6.9401,0.50781 2.20052,3.21615 3.38542,6.85547 1.26953,3.63932 1.26953,7.70182 z"
         style="font-style:normal;font-variant:normal;font-weight:normal;font-stretch:normal;font-size:173.33332825px;font-family:'Gentium Basic';-inkscape-font-specification:'Gentium Basic';fill:#0000ff;fill-opacity:1"
         id="path840" />
    </g>
  </g>
</svg>
